<?xml version="1.0" encoding="UTF-8"?>
<svg xmlns="http://www.w3.org/2000/svg" xmlns:xlink="http://www.w3.org/1999/xlink" width="3872.98" height="3872.98" viewBox="0 0 3872.98 3872.98">
<defs>
<clipPath id="clip-0">
<path clip-rule="nonzero" d="M 697 922 L 3176 922 L 3176 2951 L 697 2951 Z M 697 922 "/>
</clipPath>
<clipPath id="clip-1">
<path clip-rule="evenodd" d="M 2441.648438 2160.289062 L 2443.230469 2160.25 L 2688.171875 2160.25 L 2689.71875 2160.289062 L 3109.609375 2160.289062 L 3109.609375 2039.679688 L 763.367188 2039.679688 L 763.367188 2160.289062 L 1183.21875 2160.289062 L 1184.78125 2160.25 L 1429.710938 2160.25 L 1431.269531 2160.289062 Z M 1128.761719 2884.371094 L 1485.71875 2884.371094 L 1441.921875 2782.878906 L 1172.539062 2782.878906 Z M 1217.898438 2716.648438 L 1396.578125 2716.648438 L 1396.578125 2226.5 L 1217.898438 2226.5 Z M 1092.550781 1973.429688 L 1092.550781 1073.378906 C 1074.308594 1046.160156 1057.25 1017.910156 1041.480469 988.640625 L 903.535156 988.640625 L 903.535156 1973.429688 Z M 1362.820312 1973.429688 L 1362.820312 1346.53125 C 1287.21875 1294.839844 1218.511719 1232.769531 1158.769531 1161.609375 L 1158.769531 1973.429688 Z M 1633.101562 1973.429688 L 1633.101562 1477.238281 C 1561.71875 1455.039062 1493.308594 1425.121094 1429.039062 1388.121094 L 1429.039062 1973.429688 Z M 2173.628906 1973.429688 L 2173.628906 1495.378906 C 2097.058594 1513.601562 2017.589844 1523.128906 1936.480469 1523.128906 C 1855.371094 1523.128906 1775.898438 1513.621094 1699.328125 1495.390625 L 1699.328125 1973.429688 Z M 2443.898438 1973.429688 L 2443.898438 1388.128906 C 2379.621094 1425.121094 2311.25 1455.050781 2239.859375 1477.238281 L 2239.859375 1973.429688 Z M 2780.398438 1073.488281 L 2780.398438 1973.429688 L 2969.449219 1973.429688 L 2969.449219 988.640625 L 2831.5 988.640625 C 2815.71875 1017.941406 2798.660156 1046.230469 2780.398438 1073.488281 Z M 2714.148438 1973.429688 L 2714.148438 1161.648438 C 2654.421875 1232.800781 2585.710938 1294.871094 2510.128906 1346.53125 L 2510.128906 1973.429688 Z M 2387.230469 2884.371094 L 2744.148438 2884.371094 L 2700.378906 2782.878906 L 2430.980469 2782.878906 Z M 2476.339844 2716.648438 L 2655.050781 2716.648438 L 2655.050781 2226.5 L 2476.339844 2226.5 Z M 3142.699219 2226.5 L 2721.28125 2226.5 L 2721.28125 2716.648438 L 2722.171875 2716.648438 C 2735.390625 2716.648438 2747.300781 2724.488281 2752.578125 2736.628906 L 2823.050781 2899.988281 C 2826.199219 2905.050781 2828.03125 2911.058594 2828.03125 2917.460938 C 2828.03125 2935.761719 2813.238281 2950.578125 2794.921875 2950.578125 C 2794.820312 2950.578125 2794.660156 2950.578125 2794.519531 2950.578125 L 2336.851562 2950.578125 C 2325.71875 2950.578125 2315.320312 2944.980469 2309.199219 2935.671875 C 2303.089844 2926.328125 2302.050781 2914.589844 2306.441406 2904.339844 L 2378.808594 2736.628906 C 2384.070312 2724.511719 2395.988281 2716.648438 2409.230469 2716.648438 L 2410.109375 2716.648438 L 2410.109375 2226.5 L 1462.828125 2226.5 L 1462.828125 2716.648438 L 1463.710938 2716.648438 C 1476.910156 2716.648438 1488.871094 2724.488281 1494.101562 2736.628906 L 1564.589844 2899.988281 C 1567.769531 2905.050781 1569.578125 2911.058594 1569.578125 2917.460938 C 1569.589844 2935.761719 1554.761719 2950.578125 1536.46875 2950.578125 C 1536.339844 2950.578125 1536.21875 2950.558594 1536.078125 2950.578125 L 1078.421875 2950.578125 C 1067.28125 2950.578125 1056.871094 2944.980469 1050.738281 2935.671875 C 1044.609375 2926.351562 1043.578125 2914.589844 1048 2904.339844 L 1120.378906 2736.628906 C 1125.621094 2724.511719 1137.570312 2716.648438 1150.78125 2716.648438 L 1151.660156 2716.648438 L 1151.660156 2226.5 L 730.253906 2226.5 C 711.960938 2226.5 697.136719 2211.671875 697.136719 2193.390625 L 697.136719 2006.539062 C 697.136719 1988.238281 711.960938 1973.429688 730.253906 1973.429688 L 837.308594 1973.429688 L 837.308594 955.519531 C 837.308594 937.21875 852.128906 922.410156 870.421875 922.410156 L 1061.460938 922.410156 C 1073.878906 922.410156 1085.261719 929.359375 1090.921875 940.398438 C 1109.101562 975.800781 1129.289062 1009.699219 1151.261719 1042.011719 C 1152.429688 1043.449219 1153.511719 1044.980469 1154.429688 1046.601562 C 1223.589844 1147.050781 1310.308594 1231.890625 1409.25 1297.878906 C 1412.691406 1299.390625 1415.800781 1301.449219 1418.5 1303.980469 C 1496.570312 1354.730469 1582.050781 1393.871094 1672.398438 1419.851562 C 1674.359375 1420.21875 1676.261719 1420.75 1678.070312 1421.449219 C 1760.839844 1444.691406 1847.601562 1456.898438 1936.480469 1456.898438 C 2025.289062 1456.898438 2112.03125 1444.710938 2194.75 1421.5 C 2196.621094 1420.769531 2198.570312 1420.199219 2200.601562 1419.828125 C 2290.859375 1393.878906 2376.25 1354.78125 2454.261719 1304.101562 C 2457.058594 1301.441406 2460.351562 1299.28125 2463.949219 1297.71875 C 2562.679688 1231.851562 2649.199219 1147.210938 2718.289062 1047.011719 C 2719.289062 1045.179688 2720.46875 1043.460938 2721.808594 1041.859375 C 2743.761719 1009.589844 2763.890625 975.738281 2782.03125 940.398438 C 2787.730469 929.359375 2799.070312 922.410156 2811.5 922.410156 L 3002.539062 922.410156 C 3020.820312 922.410156 3035.660156 937.21875 3035.660156 955.519531 L 3035.660156 1973.429688 L 3142.738281 1973.429688 C 3161.019531 1973.429688 3175.839844 1988.238281 3175.839844 2006.539062 L 3175.839844 2193.390625 C 3175.820312 2211.671875 3161 2226.5 3142.699219 2226.5 "/>
</clipPath>
<linearGradient id="linear-pattern-0" gradientUnits="userSpaceOnUse" x1="0" y1="0" x2="1" y2="0" gradientTransform="matrix(2478.7, 0, 0, 2478.7, 697.138, 1936.49)">
<stop offset="0" stop-color="rgb(100%, 95.69%, 98.43%)" stop-opacity="1"/>
<stop offset="0.25" stop-color="rgb(100%, 81.57%, 92.55%)" stop-opacity="1"/>
<stop offset="0.5" stop-color="rgb(98.43%, 49.02%, 77.65%)" stop-opacity="1"/>
<stop offset="0.75" stop-color="rgb(85.49%, 17.65%, 59.22%)" stop-opacity="1"/>
<stop offset="1" stop-color="rgb(59.22%, 11.37%, 38.82%)" stop-opacity="1"/>
</linearGradient>
</defs>
<path fill-rule="evenodd" fill="rgb(71.76%, 12.16%, 47.06%)" fill-opacity="1" d="M 1936.488281 0 C 3001.578125 0 3872.980469 871.421875 3872.980469 1936.488281 C 3872.980469 3001.578125 3001.578125 3872.980469 1936.488281 3872.980469 C 871.414062 3872.980469 0 3001.578125 0 1936.488281 C 0 871.421875 871.414062 0 1936.488281 0 "/>
<g clip-path="url(#clip-0)">
<g clip-path="url(#clip-1)">
<path fill-rule="nonzero" fill="url(#linear-pattern-0)" d="M 697.136719 922.410156 L 697.136719 2950.578125 L 3175.839844 2950.578125 L 3175.839844 922.410156 Z M 697.136719 922.410156 "/>
</g>
</g>
</svg>
